<svg width="80" height="80" fill="none" xmlns="http://www.w3.org/2000/svg"><path d="M78.375 6.648H1.625C.725 6.648 0 7.374 0 8.274V71.71c0 .9.725 1.638 1.625 1.638h76.75c.9 0 1.625-.738 1.625-1.638V8.274c0-.9-.725-1.626-1.625-1.626zM39.462 16.974a4.044 4.044 0 118.088.012 4.044 4.044 0 01-8.088-.012zm11.563 0c0-2.225 1.8-4.038 4.037-4.038a4.046 4.046 0 014.05 4.038 4.049 4.049 0 01-4.05 4.05 4.038 4.038 0 01-4.037-4.05zm11.55 0a4.043 4.043 0 118.088.012 4.043 4.043 0 01-8.088-.012zm8.675 9.287v38.338H8.75V26.26h62.5z" fill="#8C8C8C"/><path d="M20.618 48.01l10.755 5.357c.206.097.384.152.542.167l.093.006c.28 0 .53-.133.705-.374.123-.17.201-.392.245-.696.031-.218.048-.518.048-.901 0-.413-.01-.74-.03-.983a2.874 2.874 0 00-.13-.7 1.218 1.218 0 00-.424-.6 2.63 2.63 0 00-.45-.26l-4.104-1.902-2.574-1.211 6.849-3.21c.157-.08.284-.161.394-.254a1.17 1.17 0 00.347-.582 3.19 3.19 0 00.1-.665c.014-.234.022-.55.022-.95 0-.703-.08-1.148-.26-1.44a.932.932 0 00-.81-.456c-.182 0-.368.047-.575.146L20.6 43.842a1.186 1.186 0 00-.367.334 1.39 1.39 0 00-.223.503 4.258 4.258 0 00-.084.53c-.021.2-.031.434-.031.701 0 .533.036.934.11 1.227.105.408.301.697.614.873zm13.188 10.553c.197.117.45.198.776.248.268.041.612.063 1.034.063.337 0 .616-.013.836-.039.248-.029.455-.073.636-.135.225-.078.41-.19.553-.332.137-.137.245-.31.328-.526l8.372-23.56a1.58 1.58 0 00.06-.69 1.023 1.023 0 00-.5-.72c-.195-.12-.447-.203-.77-.253a6.894 6.894 0 00-1.042-.064 7.82 7.82 0 00-.833.039c-.261.03-.474.074-.652.138a1.39 1.39 0 00-.552.348c-.14.15-.246.333-.303.52l-8.375 23.516c-.091.259-.12.5-.085.719.048.3.23.558.517.728zm14.077-9.42a1.459 1.459 0 00-.45.28c-.15.138-.263.333-.331.574a3.19 3.19 0 00-.1.665c-.015.234-.022.55-.022.949 0 .312.014.57.04.773.035.278.108.498.222.675a.929.929 0 00.692.435l.099.005c.185 0 .375-.05.578-.152l10.709-5.306a1.05 1.05 0 00.434-.353 1.49 1.49 0 00.227-.495 3.66 3.66 0 00.094-.545 6.92 6.92 0 00.031-.695c0-.538-.042-.947-.13-1.252-.122-.424-.333-.707-.608-.834l-10.756-5.364a1.642 1.642 0 00-.643-.179.865.865 0 00-.71.373c-.127.176-.203.402-.24.712-.025.214-.039.51-.039.886 0 .408.007.732.022.97.018.29.059.523.123.71.089.258.232.461.424.601.129.096.286.182.465.26l4.092 1.898 2.586 1.216-6.809 3.193z" fill="#8C8C8C"/></svg>