<svg width="80" height="80" fill="none" xmlns="http://www.w3.org/2000/svg"><g clip-path="url(#clip0_297_667)" fill="#8C8C8C"><path d="M32.176 62.475l-.527 6.632H26.36a2.43 2.43 0 00-2.423 2.423v1.68h32.126v-1.68a2.43 2.43 0 00-2.423-2.423h-5.289l-.49-6.159-.035-.476h29.676A2.51 2.51 0 0080 59.962V9.303a2.51 2.51 0 00-2.498-2.51H2.51A2.521 2.521 0 000 9.303v50.659a2.521 2.521 0 002.51 2.51h27.498l2.168.003zm43.356-44.193v.019H4.672L4.48 18.3v-7.028h71.052v7.01zm-71.052.88h71.052v38.83H4.48v-38.83z"/><path d="M7.458 15.54a1.007 1.007 0 100-2.013 1.007 1.007 0 000 2.014zm4.562.357h55.539a.828.828 0 00.828-.828v-1.073a.828.828 0 00-.828-.828h-55.54a.829.829 0 00-.828.828v1.073c0 .457.371.828.828.828zm38.193 28.179v-.025H29.796v2.105h20.417v-2.08zm-4.367 4.768H34.163c-.591 0-1.071.48-1.071 1.07v2.247c0 .591.48 1.071 1.071 1.071h11.683c.592 0 1.072-.48 1.072-1.071v-2.246c0-.592-.48-1.071-1.072-1.071zM40 42.166c5.083 0 9.206-4.135 9.206-9.206 0-5.07-4.123-9.206-9.206-9.206-5.07 0-9.194 4.135-9.194 9.206 0 5.07 4.123 9.206 9.194 9.206zm7.407-8.285a7.438 7.438 0 01-.998 2.887c-.063.105-.125.21-.192.312-.24.352-.504.69-.808 1.004a2.937 2.937 0 00-.437-.632c-.935-.91-2.437-1.12-3.41-2.006v-.886c.48-.185.58-1.059.69-1.452.738.221 1.021-1.354.541-1.736.444-.984.271-1.97-.603-2.634-.185-.135-.443-.22-.603-.37-.172-.16-.258-.405-.443-.565-.37-.32-.812-.443-1.292-.443-.615 0-1.661.53-2.203 1.255v.013c-.517.7-.862 1.92-.406 2.744-.53.443-.148 1.736.553 1.736.037.381.259 1.28.702 1.452v.886c-.91.837-2.191 1.12-3.176 1.834-.16.103-.404.42-.625.79l-.055.08c-.117-.12-.225-.25-.333-.377a7.333 7.333 0 01-1.495-2.831 7.536 7.536 0 01-.247-1.446c-.013-.178-.026-.355-.026-.536 0-4.111 3.348-7.47 7.458-7.47 4.123 0 7.471 3.359 7.471 7.47 0 .18-.013.356-.026.531a7.148 7.148 0 01-.037.39zm23.098-18.565l.583.582.781-.78.78.78.583-.582-.78-.781.78-.78-.582-.583-.781.78-.781-.78-.565.564-.018.019.78.78-.78.781z"/></g><defs><clipPath id="clip0_297_667"><path fill="#fff" d="M0 0h80v80H0z"/></clipPath></defs></svg>