<svg width="32" height="32" fill="none" xmlns="http://www.w3.org/2000/svg"><g clip-path="url(#clip0_342_983)"><path fill-rule="evenodd" clip-rule="evenodd" d="M16 0C7.164 0 0 7.346 0 16.406c0 7.248 4.584 13.399 10.942 15.567.8.152 1.094-.356 1.094-.79 0-.392-.015-1.685-.02-3.054-4.452.991-5.39-1.935-5.39-1.935-.728-1.896-1.775-2.401-1.775-2.401-1.452-1.019.109-.997.109-.997 1.605.117 2.453 1.69 2.453 1.69 1.428 2.507 3.744 1.782 4.655 1.363.143-1.06.56-1.785 1.015-2.195-3.553-.415-7.289-1.823-7.289-8.106 0-1.79.626-3.255 1.648-4.404-.167-.413-.712-2.081.154-4.341 0 0 1.343-.44 4.4 1.681a14.927 14.927 0 014.007-.551c1.359.005 2.729.187 4.008.551 3.055-2.121 4.396-1.681 4.396-1.681.871 2.26.323 3.928.156 4.34 1.025 1.15 1.645 2.614 1.645 4.405 0 6.3-3.743 7.688-7.304 8.095.575.508 1.086 1.508 1.086 3.038 0 2.195-.018 3.96-.018 4.501 0 .438.288.948 1.099.788 6.353-2.17 10.932-8.318 10.932-15.564C32 7.346 24.836 0 16 0z" fill="#272727"/><path d="M6.06 23.553c-.035.082-.163.106-.276.049-.117-.054-.18-.166-.144-.247.035-.084.16-.106.276-.052.117.055.183.166.143.247v.003zm.649.741c-.077.073-.226.038-.326-.076-.106-.114-.125-.266-.048-.34.08-.073.223-.038.329.076.106.117.124.267.045.34zm.63.947c-.098.07-.26.006-.358-.141-.098-.147-.098-.32 0-.391.098-.07.257-.008.358.138.098.15.098.324 0 .394zm.864.913c-.088.1-.276.073-.411-.063-.14-.133-.178-.32-.09-.418.09-.1.275-.07.413.063.138.133.18.32.088.418zm1.192.529c-.04.127-.22.187-.4.133-.18-.057-.3-.207-.263-.337.037-.13.218-.19.4-.133.18.057.3.206.263.337zm1.309.099c.005.136-.149.247-.34.25-.19.006-.346-.106-.346-.239 0-.136.15-.247.341-.25.191-.003.347.106.347.24h-.002zm1.218-.212c.024.133-.108.266-.299.304-.185.035-.358-.046-.381-.177-.024-.136.11-.271.296-.307.188-.032.358.046.382.18h.002z" fill="#1A1414"/></g><defs><clipPath id="clip0_342_983"><path fill="#fff" d="M0 0h32v32H0z"/></clipPath></defs></svg>