<svg width="32" height="40" fill="none" xmlns="http://www.w3.org/2000/svg"><g clip-path="url(#clip0_568_1916)" fill="#272727"><path d="M32 0v39.974h-1.072L14.98 11.55l-3.755-6.695L8.502 0h2.224l19.701 35c-.153-3.236-.254-11.327-.254-16.421V0H32zM0 39.974V0h1.072L17.02 28.426l3.755 6.694 2.724 4.855h-2.224l-19.701-35c.153 3.236.254 11.327.254 16.42v18.58H0zm26.12-4.952l-.254-.452L6.406 0H2.973l2.723 4.858 2.993 5.334L25.409 40h3.503l-2.791-4.978z"/></g><defs><clipPath id="clip0_568_1916"><path fill="#fff" d="M0 0h32v40H0z"/></clipPath></defs></svg>