<svg id="svglogo" width="139" height="57" fill="none" xmlns="http://www.w3.org/2000/svg"><g clip-path="url(#clip0_615_2006)" stroke="#000"><path d="M43.245 26.01V.5h1.588v54.964h-.728L21.658 15.921h0l-5.32-9.372h0L12.903.5h2.001L42.67 49.247l.934-.27c-.215-4.519-.358-15.835-.358-22.967zM2.088 29.954v25.51H.5V.5h.728l22.447 39.543 5.32 9.372h0l3.435 6.05h-2L2.662 6.717l-.934.271c.216 4.518.359 15.835.359 22.966zm10.655-15.932h0l-4.24-7.468h0L5.07.5h3.717L36.21 48.645h0l.36.633h0L40.1 55.5h-3.813L12.743 14.022z"/></g><path d="M75.092 35.364h-2.268V46.34c0 2.436.14 4.564.224 6.776H72.6c-.98-2.072-1.708-3.864-2.912-6.188L63.78 35.364H60V56h2.268V44.128c0-2.296-.084-4.312-.112-6.636h.42c1.064 2.184 1.792 3.78 2.94 6.02L71.984 56h3.108V35.364zM89.4 35c-4.9 0-8.511 3.92-8.511 10.724 0 6.776 3.556 10.668 8.512 10.668 4.928 0 8.512-3.948 8.512-10.724C97.913 38.864 94.357 35 89.4 35zm0 2.016c3.529 0 5.937 2.968 5.937 8.68 0 5.684-2.408 8.68-5.936 8.68-3.5 0-5.936-2.996-5.936-8.68 0-5.712 2.436-8.68 5.936-8.68zm14.32-1.652V56h7.224c4.48 0 7.112-2.156 7.112-5.768 0-2.772-1.848-4.62-5.124-5.04v-.224c2.744-.392 4.48-2.1 4.48-4.536 0-3.22-1.904-5.068-6.86-5.068h-6.832zm2.38 1.96h4.144c3.556 0 4.704 1.064 4.704 3.276 0 2.184-1.764 3.556-5.124 3.556H106.1v-6.832zm0 8.792h3.892c3.612 0 5.544 1.54 5.544 4.004 0 2.52-1.54 3.92-4.9 3.92H106.1v-7.924zm32.612-10.752h-2.296v13.664c0 3.752-1.988 5.348-5.096 5.348s-5.096-1.596-5.096-5.348V35.364h-2.436v13.748c0 5.012 3.164 7.28 7.476 7.28 4.284 0 7.448-2.324 7.448-7.28V35.364zM59.68 13.92v11.792h1.376V20.56h2.432c2.736 0 4.192-1.296 4.192-3.36 0-2.096-1.328-3.28-4.08-3.28h-3.92zm1.376 1.12h2.464c1.92 0 2.72.768 2.72 2.176 0 1.424-.88 2.256-2.816 2.256h-2.368V15.04zm12.345 2.32c-2.08 0-3.52 1.664-3.52 4.304 0 2.624 1.424 4.256 3.504 4.256s3.52-1.664 3.52-4.304c0-2.64-1.456-4.256-3.504-4.256zm0 1.008c1.36 0 2.176 1.168 2.176 3.264 0 2.128-.832 3.28-2.192 3.28-1.36 0-2.176-1.168-2.176-3.28 0-2.096.816-3.264 2.192-3.264zm10.474-1.008c-1.072 0-2.048.688-2.656 2.256v-2.08H79.97v8.176h1.296v-4.688c.512-1.6 1.504-2.4 2.512-2.4l.096-1.264zm4.259-2.656l-1.28.288v2.544h-1.328v1.008h1.328v5.28c0 1.408.736 2.08 2.112 2.08.448 0 .816-.016 1.264-.08l.064-1.008c-.368.08-.672.096-1.024.096-.736 0-1.136-.416-1.136-1.328v-5.04h1.952v-1.008h-1.952v-2.832zm8.377-.912c-.4-.048-.768-.08-1.088-.08-1.456 0-2.24.736-2.24 2.224v1.6h-1.44v1.008h1.44v7.168h1.28v-7.168h1.824v-1.008h-1.824v-1.552c0-.912.352-1.28 1.184-1.28.208 0 .448.032.704.064l.16-.976zm5.341 3.568c-2.08 0-3.52 1.664-3.52 4.304 0 2.624 1.424 4.256 3.504 4.256s3.52-1.664 3.52-4.304c0-2.64-1.456-4.256-3.504-4.256zm0 1.008c1.36 0 2.176 1.168 2.176 3.264 0 2.128-.832 3.28-2.192 3.28-1.36 0-2.176-1.168-2.176-3.28 0-2.096.816-3.264 2.192-3.264zm7.865-4.656h-1.296v12h1.296v-12zm4.891 3.824h-1.312v8.176h1.312v-8.176zm.144-3.152h-1.6v1.584h1.6v-1.584zm6.442 2.976c-2.08 0-3.52 1.664-3.52 4.304 0 2.624 1.424 4.256 3.504 4.256s3.52-1.664 3.52-4.304c0-2.64-1.456-4.256-3.504-4.256zm0 1.008c1.36 0 2.176 1.168 2.176 3.264 0 2.128-.832 3.28-2.192 3.28-1.36 0-2.176-1.168-2.176-3.28 0-2.096.816-3.264 2.192-3.264z" fill="#272727"/><defs><clipPath id="clip0_615_2006"><path fill="#fff" d="M0 0h45.333v56H0z"/></clipPath></defs></svg>