<svg width="149" height="93" fill="none" xmlns="http://www.w3.org/2000/svg"><g clip-path="url(#clip0_619_2010)"><path d="M98.693 31.12V.5h2.096v65.957h-1.027l-26.884-47.36h0L66.513 7.884h0L62.32.5h2.62l33.248 58.372.934-.271c-.258-5.408-.43-18.95-.43-27.482z" fill="#272727" stroke="#272727" class="svg-elem-1"/><path d="M49.647 35.838v30.62H47.55V.5h1.026l26.885 47.36h0l6.364 11.214h0l4.193 7.384H83.4L50.151 8.085l-.934.271c.258 5.408.43 18.95.43 27.482z" fill="#272727" stroke="#272727" class="svg-elem-2"/><path d="M52.946.5h4.673l32.839 57.651h0l.43.758h0l4.309 7.591h-4.788L62.21 16.825h0L57.14 7.89h0L52.946.5z" fill="#272727" stroke="#272727" class="svg-elem-3"/></g><mask id="path-4-inside-1_619_2010" fill="#fff"><path d="M9.702 79.234H8.244v7.056c0 1.566.09 2.934.144 4.356H8.1c-.63-1.332-1.098-2.484-1.872-3.978L2.43 79.234H0V92.5h1.458v-7.632c0-1.476-.054-2.772-.072-4.266h.27c.684 1.404 1.152 2.43 1.89 3.87L7.704 92.5h1.998V79.234z" class="svg-elem-4"/><path d="M18.9 79c-3.15 0-5.472 2.52-5.472 6.894 0 4.356 2.286 6.858 5.472 6.858 3.168 0 5.472-2.538 5.472-6.894 0-4.374-2.286-6.858-5.472-6.858zm0 1.296c2.268 0 3.816 1.908 3.816 5.58 0 3.654-1.548 5.58-3.816 5.58-2.25 0-3.816-1.926-3.816-5.58 0-3.672 1.566-5.58 3.816-5.58z" class="svg-elem-5"/><path d="M28.106 79.234V92.5h4.644c2.88 0 4.572-1.386 4.572-3.708 0-1.782-1.188-2.97-3.294-3.24v-.144c1.764-.252 2.88-1.35 2.88-2.916 0-2.07-1.224-3.258-4.41-3.258h-4.392zm1.53 1.26H32.3c2.286 0 3.024.684 3.024 2.106 0 1.404-1.134 2.286-3.294 2.286h-2.394v-4.392zm0 5.652h2.502c2.322 0 3.564.99 3.564 2.574 0 1.62-.99 2.52-3.15 2.52h-2.916v-5.094z" class="svg-elem-6"/><path d="M50.6 79.234h-1.475v8.784c0 2.412-1.278 3.438-3.276 3.438-1.998 0-3.276-1.026-3.276-3.438v-8.784h-1.566v8.838c0 3.222 2.034 4.68 4.806 4.68 2.754 0 4.788-1.494 4.788-4.68v-8.838z" class="svg-elem-7"/><path d="M65.386 86.776h-5.004v1.206h5.004v-1.206z" class="svg-elem-8"/><path d="M75.194 79.234V92.5h1.548v-5.796h2.736c3.078 0 4.716-1.458 4.716-3.78 0-2.358-1.494-3.69-4.59-3.69h-4.41zm1.548 1.26h2.772c2.16 0 3.06.864 3.06 2.448 0 1.602-.99 2.538-3.168 2.538h-2.664v-4.986z" class="svg-elem-9"/><path d="M90.63 83.104c-2.34 0-3.96 1.872-3.96 4.842 0 2.952 1.603 4.788 3.943 4.788s3.96-1.872 3.96-4.842c0-2.97-1.638-4.788-3.942-4.788zm0 1.134c1.53 0 2.449 1.314 2.449 3.672 0 2.394-.936 3.69-2.466 3.69-1.53 0-2.448-1.314-2.448-3.69 0-2.358.918-3.672 2.466-3.672z" class="svg-elem-10"/><path d="M102.413 83.104c-1.206 0-2.304.774-2.988 2.538v-2.34h-1.404V92.5h1.458v-5.274c.576-1.8 1.692-2.7 2.826-2.7l.108-1.422z" class="svg-elem-11"/><path d="M107.205 80.116l-1.44.324v2.862h-1.494v1.134h1.494v5.94c0 1.584.828 2.34 2.376 2.34.504 0 .918-.018 1.422-.09l.072-1.134a5.09 5.09 0 01-1.152.108c-.828 0-1.278-.468-1.278-1.494v-5.67h2.196v-1.134h-2.196v-3.186z" class="svg-elem-12"/><path d="M116.63 79.09a10.6 10.6 0 00-1.224-.09c-1.638 0-2.52.828-2.52 2.502v1.8h-1.62v1.134h1.62V92.5h1.44v-8.064h2.052v-1.134h-2.052v-1.746c0-1.026.396-1.44 1.332-1.44.234 0 .504.036.792.072l.18-1.098z" class="svg-elem-13"/><path d="M122.638 83.104c-2.34 0-3.96 1.872-3.96 4.842 0 2.952 1.602 4.788 3.942 4.788s3.96-1.872 3.96-4.842c0-2.97-1.638-4.788-3.942-4.788zm0 1.134c1.53 0 2.448 1.314 2.448 3.672 0 2.394-.936 3.69-2.466 3.69-1.53 0-2.448-1.314-2.448-3.69 0-2.358.918-3.672 2.466-3.672z" class="svg-elem-14"/><path d="M131.486 79h-1.458v13.5h1.458V79z" class="svg-elem-15"/><path d="M136.988 83.302h-1.476V92.5h1.476v-9.198zm.162-3.546h-1.8v1.782h1.8v-1.782z" class="svg-elem-16"/><path d="M144.397 83.104c-2.34 0-3.96 1.872-3.96 4.842 0 2.952 1.602 4.788 3.942 4.788s3.96-1.872 3.96-4.842c0-2.97-1.638-4.788-3.942-4.788zm0 1.134c1.53 0 2.448 1.314 2.448 3.672 0 2.394-.936 3.69-2.466 3.69-1.53 0-2.448-1.314-2.448-3.69 0-2.358.918-3.672 2.466-3.672z" class="svg-elem-17"/></mask><path d="M9.702 79.234H8.244v7.056c0 1.566.09 2.934.144 4.356H8.1c-.63-1.332-1.098-2.484-1.872-3.978L2.43 79.234H0V92.5h1.458v-7.632c0-1.476-.054-2.772-.072-4.266h.27c.684 1.404 1.152 2.43 1.89 3.87L7.704 92.5h1.998V79.234z" fill="#272727" class="svg-elem-18"/><path d="M18.9 79c-3.15 0-5.472 2.52-5.472 6.894 0 4.356 2.286 6.858 5.472 6.858 3.168 0 5.472-2.538 5.472-6.894 0-4.374-2.286-6.858-5.472-6.858zm0 1.296c2.268 0 3.816 1.908 3.816 5.58 0 3.654-1.548 5.58-3.816 5.58-2.25 0-3.816-1.926-3.816-5.58 0-3.672 1.566-5.58 3.816-5.58z" fill="#272727" class="svg-elem-19"/><path d="M28.106 79.234V92.5h4.644c2.88 0 4.572-1.386 4.572-3.708 0-1.782-1.188-2.97-3.294-3.24v-.144c1.764-.252 2.88-1.35 2.88-2.916 0-2.07-1.224-3.258-4.41-3.258h-4.392zm1.53 1.26H32.3c2.286 0 3.024.684 3.024 2.106 0 1.404-1.134 2.286-3.294 2.286h-2.394v-4.392zm0 5.652h2.502c2.322 0 3.564.99 3.564 2.574 0 1.62-.99 2.52-3.15 2.52h-2.916v-5.094z" fill="#272727" class="svg-elem-20"/><path d="M50.6 79.234h-1.475v8.784c0 2.412-1.278 3.438-3.276 3.438-1.998 0-3.276-1.026-3.276-3.438v-8.784h-1.566v8.838c0 3.222 2.034 4.68 4.806 4.68 2.754 0 4.788-1.494 4.788-4.68v-8.838z" fill="#272727" class="svg-elem-21"/><path d="M65.386 86.776h-5.004v1.206h5.004v-1.206z" fill="#272727" class="svg-elem-22"/><path d="M75.194 79.234V92.5h1.548v-5.796h2.736c3.078 0 4.716-1.458 4.716-3.78 0-2.358-1.494-3.69-4.59-3.69h-4.41zm1.548 1.26h2.772c2.16 0 3.06.864 3.06 2.448 0 1.602-.99 2.538-3.168 2.538h-2.664v-4.986z" fill="#272727" class="svg-elem-23"/><path d="M90.63 83.104c-2.34 0-3.96 1.872-3.96 4.842 0 2.952 1.603 4.788 3.943 4.788s3.96-1.872 3.96-4.842c0-2.97-1.638-4.788-3.942-4.788zm0 1.134c1.53 0 2.449 1.314 2.449 3.672 0 2.394-.936 3.69-2.466 3.69-1.53 0-2.448-1.314-2.448-3.69 0-2.358.918-3.672 2.466-3.672z" fill="#272727" class="svg-elem-24"/><path d="M102.413 83.104c-1.206 0-2.304.774-2.988 2.538v-2.34h-1.404V92.5h1.458v-5.274c.576-1.8 1.692-2.7 2.826-2.7l.108-1.422z" fill="#272727" class="svg-elem-25"/><path d="M107.205 80.116l-1.44.324v2.862h-1.494v1.134h1.494v5.94c0 1.584.828 2.34 2.376 2.34.504 0 .918-.018 1.422-.09l.072-1.134a5.09 5.09 0 01-1.152.108c-.828 0-1.278-.468-1.278-1.494v-5.67h2.196v-1.134h-2.196v-3.186z" fill="#272727" class="svg-elem-26"/><path d="M116.63 79.09a10.6 10.6 0 00-1.224-.09c-1.638 0-2.52.828-2.52 2.502v1.8h-1.62v1.134h1.62V92.5h1.44v-8.064h2.052v-1.134h-2.052v-1.746c0-1.026.396-1.44 1.332-1.44.234 0 .504.036.792.072l.18-1.098z" fill="#272727" class="svg-elem-27"/><path d="M122.638 83.104c-2.34 0-3.96 1.872-3.96 4.842 0 2.952 1.602 4.788 3.942 4.788s3.96-1.872 3.96-4.842c0-2.97-1.638-4.788-3.942-4.788zm0 1.134c1.53 0 2.448 1.314 2.448 3.672 0 2.394-.936 3.69-2.466 3.69-1.53 0-2.448-1.314-2.448-3.69 0-2.358.918-3.672 2.466-3.672z" fill="#272727" class="svg-elem-28"/><path d="M131.486 79h-1.458v13.5h1.458V79z" fill="#272727" class="svg-elem-29"/><path d="M136.988 83.302h-1.476V92.5h1.476v-9.198zm.162-3.546h-1.8v1.782h1.8v-1.782z" fill="#272727" class="svg-elem-30"/><path d="M144.397 83.104c-2.34 0-3.96 1.872-3.96 4.842 0 2.952 1.602 4.788 3.942 4.788s3.96-1.872 3.96-4.842c0-2.97-1.638-4.788-3.942-4.788zm0 1.134c1.53 0 2.448 1.314 2.448 3.672 0 2.394-.936 3.69-2.466 3.69-1.53 0-2.448-1.314-2.448-3.69 0-2.358.918-3.672 2.466-3.672z" fill="#272727" class="svg-elem-31"/><path d="M9.702 79.234H8.244v7.056c0 1.566.09 2.934.144 4.356H8.1c-.63-1.332-1.098-2.484-1.872-3.978L2.43 79.234H0V92.5h1.458v-7.632c0-1.476-.054-2.772-.072-4.266h.27c.684 1.404 1.152 2.43 1.89 3.87L7.704 92.5h1.998V79.234z" stroke="#272727" mask="url(#path-4-inside-1_619_2010)" class="svg-elem-32"/><path d="M18.9 79c-3.15 0-5.472 2.52-5.472 6.894 0 4.356 2.286 6.858 5.472 6.858 3.168 0 5.472-2.538 5.472-6.894 0-4.374-2.286-6.858-5.472-6.858zm0 1.296c2.268 0 3.816 1.908 3.816 5.58 0 3.654-1.548 5.58-3.816 5.58-2.25 0-3.816-1.926-3.816-5.58 0-3.672 1.566-5.58 3.816-5.58z" stroke="#272727" mask="url(#path-4-inside-1_619_2010)" class="svg-elem-33"/><path d="M28.106 79.234V92.5h4.644c2.88 0 4.572-1.386 4.572-3.708 0-1.782-1.188-2.97-3.294-3.24v-.144c1.764-.252 2.88-1.35 2.88-2.916 0-2.07-1.224-3.258-4.41-3.258h-4.392zm1.53 1.26H32.3c2.286 0 3.024.684 3.024 2.106 0 1.404-1.134 2.286-3.294 2.286h-2.394v-4.392zm0 5.652h2.502c2.322 0 3.564.99 3.564 2.574 0 1.62-.99 2.52-3.15 2.52h-2.916v-5.094z" stroke="#272727" mask="url(#path-4-inside-1_619_2010)" class="svg-elem-34"/><path d="M50.6 79.234h-1.475v8.784c0 2.412-1.278 3.438-3.276 3.438-1.998 0-3.276-1.026-3.276-3.438v-8.784h-1.566v8.838c0 3.222 2.034 4.68 4.806 4.68 2.754 0 4.788-1.494 4.788-4.68v-8.838z" stroke="#272727" mask="url(#path-4-inside-1_619_2010)" class="svg-elem-35"/><path d="M65.386 86.776h-5.004v1.206h5.004v-1.206z" stroke="#272727" mask="url(#path-4-inside-1_619_2010)" class="svg-elem-36"/><path d="M75.194 79.234V92.5h1.548v-5.796h2.736c3.078 0 4.716-1.458 4.716-3.78 0-2.358-1.494-3.69-4.59-3.69h-4.41zm1.548 1.26h2.772c2.16 0 3.06.864 3.06 2.448 0 1.602-.99 2.538-3.168 2.538h-2.664v-4.986z" stroke="#272727" mask="url(#path-4-inside-1_619_2010)" class="svg-elem-37"/><path d="M90.63 83.104c-2.34 0-3.96 1.872-3.96 4.842 0 2.952 1.603 4.788 3.943 4.788s3.96-1.872 3.96-4.842c0-2.97-1.638-4.788-3.942-4.788zm0 1.134c1.53 0 2.449 1.314 2.449 3.672 0 2.394-.936 3.69-2.466 3.69-1.53 0-2.448-1.314-2.448-3.69 0-2.358.918-3.672 2.466-3.672z" stroke="#272727" mask="url(#path-4-inside-1_619_2010)" class="svg-elem-38"/><path d="M102.413 83.104c-1.206 0-2.304.774-2.988 2.538v-2.34h-1.404V92.5h1.458v-5.274c.576-1.8 1.692-2.7 2.826-2.7l.108-1.422z" stroke="#272727" mask="url(#path-4-inside-1_619_2010)" class="svg-elem-39"/><path d="M107.205 80.116l-1.44.324v2.862h-1.494v1.134h1.494v5.94c0 1.584.828 2.34 2.376 2.34.504 0 .918-.018 1.422-.09l.072-1.134a5.09 5.09 0 01-1.152.108c-.828 0-1.278-.468-1.278-1.494v-5.67h2.196v-1.134h-2.196v-3.186z" stroke="#272727" mask="url(#path-4-inside-1_619_2010)" class="svg-elem-40"/><path d="M116.63 79.09a10.6 10.6 0 00-1.224-.09c-1.638 0-2.52.828-2.52 2.502v1.8h-1.62v1.134h1.62V92.5h1.44v-8.064h2.052v-1.134h-2.052v-1.746c0-1.026.396-1.44 1.332-1.44.234 0 .504.036.792.072l.18-1.098z" stroke="#272727" mask="url(#path-4-inside-1_619_2010)" class="svg-elem-41"/><path d="M122.638 83.104c-2.34 0-3.96 1.872-3.96 4.842 0 2.952 1.602 4.788 3.942 4.788s3.96-1.872 3.96-4.842c0-2.97-1.638-4.788-3.942-4.788zm0 1.134c1.53 0 2.448 1.314 2.448 3.672 0 2.394-.936 3.69-2.466 3.69-1.53 0-2.448-1.314-2.448-3.69 0-2.358.918-3.672 2.466-3.672z" stroke="#272727" mask="url(#path-4-inside-1_619_2010)" class="svg-elem-42"/><path d="M131.486 79h-1.458v13.5h1.458V79z" stroke="#272727" mask="url(#path-4-inside-1_619_2010)" class="svg-elem-43"/><path d="M136.988 83.302h-1.476V92.5h1.476v-9.198zm.162-3.546h-1.8v1.782h1.8v-1.782z" stroke="#272727" mask="url(#path-4-inside-1_619_2010)" class="svg-elem-44"/><path d="M144.397 83.104c-2.34 0-3.96 1.872-3.96 4.842 0 2.952 1.602 4.788 3.942 4.788s3.96-1.872 3.96-4.842c0-2.97-1.638-4.788-3.942-4.788zm0 1.134c1.53 0 2.448 1.314 2.448 3.672 0 2.394-.936 3.69-2.466 3.69-1.53 0-2.448-1.314-2.448-3.69 0-2.358.918-3.672 2.466-3.672z" stroke="#272727" mask="url(#path-4-inside-1_619_2010)" class="svg-elem-45"/><defs><clipPath id="clip0_619_2010"><path fill="#fff" transform="translate(47.05)" class="svg-elem-46" d="M0 0h54.238v67H0z"/></clipPath></defs></svg>