<svg width="80" height="80" fill="none" xmlns="http://www.w3.org/2000/svg"><path d="M39.668 24.024c-.372-.384-.764-.734-1.148-1.097l-.04-.038c-6.081-5.742-13.496-8.778-20.25-8.811-.04 0-.08-.004-.12-.004-.023 0-.046.003-.07.003-.586.002-1.166.025-1.74.073-.065.005-.128.013-.192.019-2.254.208-4.397.773-6.36 1.704-.142.067-.285.131-.423.202-.403.205-.796.428-1.182.665-.128.08-.255.163-.382.246-.869.568-1.707 1.19-2.47 1.928-8.394 8.116-6.606 23.571 3.986 34.52.374.386.766.736 1.151 1.1l.035.034c6.082 5.743 13.496 8.778 20.251 8.813l.12.003c.025 0 .049-.003.073-.003a21.829 21.829 0 001.738-.072l.194-.02c2.254-.207 4.397-.773 6.36-1.704.14-.067.282-.13.42-.201.404-.206.797-.429 1.184-.666.128-.08.254-.162.38-.245.87-.568 1.707-1.19 2.47-1.929a16.62 16.62 0 003.456-4.817c.398-.837-.232-1.798-1.16-1.826-1.664-.052-3.468-.718-5.02-1.996-3.099-2.545-4.035-6.532-2.094-8.907.613-.747 1.437-1.245 2.375-1.5l.025-.008c.297-.08.608-.132.925-.162l.087-.008c1.336-.109 2.812.21 4.202.954a1.179 1.179 0 001.582-.448 1.2 1.2 0 00.129-.881c-1.281-5.184-4.15-10.425-8.492-14.92zm-18.719 30.91a3.068 3.068 0 01-2.55-2.225 3.116 3.116 0 01.297-2.329 3.08 3.08 0 011.855-1.425c1.555-.427 3.336.594 3.752 2.153.21.776.1 1.618-.301 2.315a3.11 3.11 0 01-1.851 1.437 3.04 3.04 0 01-1.18.076l-.022-.003zM31.242 27.65a4.233 4.233 0 01-2.55 1.958 4.23 4.23 0 01-3.19-.403 4.242 4.242 0 01-1.969-2.556 4.223 4.223 0 01.414-3.184 4.249 4.249 0 012.545-1.975c2.143-.571 4.57.822 5.16 2.959a4.26 4.26 0 01-.41 3.2zM10.758 40.94a3.01 3.01 0 01.489-.257c.027-.012.053-.026.08-.037.17-.068.344-.116.519-.152.045-.008.09-.013.136-.02a3.048 3.048 0 013.017 1.327 3.053 3.053 0 01-.869 4.236 3.048 3.048 0 01-4.235-.869 3.052 3.052 0 01.863-4.228zm.87-17.12a4.18 4.18 0 013.29-4.942 4.194 4.194 0 014.952 3.298 4.215 4.215 0 01-3.297 4.95 4.214 4.214 0 01-2.922-.484 4.153 4.153 0 01-2.023-2.822zM8.62 36.107a4.211 4.211 0 01-1.965-.559 4.202 4.202 0 01-2.114-3.775 4.21 4.21 0 014.334-4.08 4.194 4.194 0 014.068 4.329 4.173 4.173 0 01-1.941 3.423c-.058.036-.124.06-.184.095a4.186 4.186 0 01-.548.278l-.045.013c-.5.189-1.04.29-1.605.276zm58.264 22.309l-8.874-2.709c-.16.091-.317.182-.472.28-1.665 1.062-3.565 3.33-4.163 5.286-1.228 4.86-.762 7.475.26 10.348.078.215.187.406.28.61l.058.128c.703 1.486 1.715 2.675 2.412 3.356.249.242.655.004.648-.383-.045-1.706.321-4.984 3.67-5.715 1.805-.394 4.262-1.276 5.834-3.255l.01-.012a6.882 6.882 0 001.335-2.83c.33-1.495-.103-2.956-.761-4.61-.068-.168-.154-.33-.237-.494zM59.32 53.07l-.112.3-.006.016-.005.016-.003.008 7.644 2.333 1.562-6.36-6.949-2.121-2.132 5.808zM78.368 4.286c-1.188-.362-2.47.302-2.885 1.515l-12.888 37.71-.428 1.252-.01.03-.005.016-.003.008 7.036 2.147 10.731-39.81c.334-1.238-.36-2.505-1.548-2.868z" fill="#8C8C8C"/></svg>