<svg width="40" height="31" fill="none" xmlns="http://www.w3.org/2000/svg"><g clip-path="url(#clip0_601_1999)"><path d="M38.571 0H1.43C.639 0 0 .63 0 1.41v28.18C0 30.37.638 31 1.429 31H38.57c.79 0 1.429-.63 1.429-1.41V1.41A1.416 1.416 0 0038.571 0zM12.232 6.34c1.576 0 2.857 1.265 2.857 2.82 0 1.553-1.281 2.817-2.857 2.817-1.576 0-2.857-1.264-2.857-2.818s1.281-2.818 2.857-2.818zm22.942 19.248a.365.365 0 01-.232.084H5.054a.356.356 0 01-.358-.352.37.37 0 01.085-.23l7.603-8.894a.363.363 0 01.504-.044c.014.013.032.026.045.044l4.438 5.196 7.058-8.257a.363.363 0 01.504-.044c.013.014.031.027.045.044l10.25 11.96a.356.356 0 01-.054.493z" fill="#000"/></g><defs><clipPath id="clip0_601_1999"><path fill="#fff" d="M0 0h40v31H0z"/></clipPath></defs></svg>