<svg width="11" height="16" fill="none" xmlns="http://www.w3.org/2000/svg"><g clip-path="url(#clip0_542_1929)"><path d="M.5 1.5A1.5 1.5 0 012 0h7a1.5 1.5 0 011.5 1.5v13A1.5 1.5 0 019 16H2a1.5 1.5 0 01-1.5-1.5v-13zm7.354 5.354a.5.5 0 000-.708l-2-2a.5.5 0 00-.708 0l-2 2a.5.5 0 00.708.708L5.5 5.207l1.646 1.647a.5.5 0 00.708 0zM3.146 9.146a.5.5 0 000 .708l2 2a.5.5 0 00.708 0l2-2a.5.5 0 00-.708-.708L5.5 10.793 3.854 9.146a.5.5 0 00-.708 0z" fill="#000"/></g><defs><clipPath id="clip0_542_1929"><path fill="#fff" transform="translate(.5)" d="M0 0h10v16H0z"/></clipPath></defs></svg>