<svg width="32" height="26" fill="none" xmlns="http://www.w3.org/2000/svg"><path d="M28.639 6.538c.019.276.019.553.019.832 0 8.505-6.555 18.313-18.54 18.313v-.005a18.615 18.615 0 01-9.99-2.885 13.189 13.189 0 009.644-2.668c-2.788-.052-5.233-1.848-6.087-4.47a6.575 6.575 0 002.942-.11C3.587 14.938 1.4 12.3 1.4 9.235v-.08c.906.497 1.92.774 2.957.805C1.494 8.07.611 4.307 2.341 1.366c3.308 4.02 8.19 6.465 13.43 6.724a6.39 6.39 0 011.884-6.15c2.625-2.436 6.753-2.312 9.22.28A13.174 13.174 0 0031.013.656a6.475 6.475 0 01-2.865 3.56 13.085 13.085 0 003.742-1.014 13.149 13.149 0 01-3.251 3.335z" fill="#000"/></svg>